<svg width="200" height="200" xmlns="http://www.w3.org/2000/svg"><g fill="none" fill-rule="evenodd"><circle fill-opacity=".2" fill="#000" cx="100" cy="100" r="100"/><g fill-rule="nonzero"><path d="M152.714 148.936c-1.748-15.796-23.86-28.291-50.893-28.291S52.68 133.14 50.93 148.936h101.784z" fill="#148DE0"/><path d="M140.043 145.23a3.705 3.705 0 0 1-3.705 3.706H67.304a3.705 3.705 0 0 1-3.701-3.705 3.702 3.702 0 0 1 3.701-3.706h69.034a3.704 3.704 0 0 1 3.705 3.706z" fill="#EAA918"/><path d="M136.338 141.525H67.304a3.679 3.679 0 0 0-2.956 1.495 3.679 3.679 0 0 0 2.956 1.495h69.034a3.686 3.686 0 0 0 2.96-1.495 3.687 3.687 0 0 0-2.96-1.495z" fill="#FFBA31"/><path d="M63.409 131.02c10.387 3.61 23.783 4.957 38.414 4.957 14.63 0 28.027-1.346 38.414-4.957-9.349-6.354-23.086-10.375-38.414-10.375-15.328 0-29.065 4.02-38.414 10.375z" fill="#1758DD"/><path d="M161.59 96.762c0 24.31-26.76 31.133-59.767 31.133-33.007 0-59.767-6.824-59.767-31.133 0-24.313 26.76-44.021 59.767-44.021 33.007 0 59.767 19.708 59.767 44.021z" fill="#C6BD8B"/><path d="M161.59 96.762c0 24.31-26.76 31.133-59.767 31.133-33.007 0-59.767-6.824-59.767-31.133 0-24.313 26.76-37.91 59.767-37.91 33.007 0 59.767 13.597 59.767 37.91z" fill="#C98D61"/><path d="M161.59 96.762c0 24.31-26.76 31.133-59.767 31.133-33.007 0-59.767-6.824-59.767-31.133 0-24.313 26.76-11.097 59.767-11.097 33.007 0 59.767-13.216 59.767 11.097z" fill="#E8A874"/><g transform="translate(72.681 97.954)" fill="#082856"><ellipse cx="5.522" cy="5.433" rx="5.369" ry="5.369"/><ellipse cx="52.766" cy="5.433" rx="5.369" ry="5.369"/></g><path d="M83.572 103.387a5.368 5.368 0 1 1-10.737 0m57.979 0a5.368 5.368 0 1 1-10.737 0" fill="#000"/><path d="M121.022 116.268c0 3.072-8.52 5.557-19.03 5.557-10.508 0-19.025-2.485-19.025-5.557 0-3.067 8.517-.505 19.026-.505 10.508 0 19.029-2.56 19.029.505z" fill="#CE416F"/><path d="M63.694 60.641s10.228.174 11.953-21.05c.97-11.834 10.654-26.507 24.95-13.513 14.289 12.996 10.915-3.379 19.746 1.299 8.84 4.68 6.76 30.146 16.118 34.042 9.357 3.9-43.401 9.357-43.401 9.357L66.81 61.94l-3.116-1.299z" fill="#EAA918"/><path d="M120.343 34.784c-8.831-4.675-5.457 11.697-19.746-1.299-14.294-12.996-23.978 1.677-24.95 13.513-.67 8.252-2.629 13.259-4.77 16.31l22.183 7.466s27.605-2.857 39.334-5.912c-4.892-8.44-4.805-26.24-12.05-30.078z" fill="#C98909"/><path d="M140.445 63.842a8.055 8.055 0 0 1-8.062 8.057H70.541a8.056 8.056 0 1 1 0-16.112h61.842a8.054 8.054 0 0 1 8.062 8.055z" fill="#723E14"/><path d="M121.606 63.842c0 4.45-1.87 8.057-4.166 8.057H85.49c-2.302 0-4.165-3.606-4.165-8.057 0-4.448 1.863-8.054 4.164-8.054h31.949c2.297 0 4.168 3.606 4.168 8.054z" fill="#49290A"/><path d="M163.892 60.285c0 12.07-28.615 21.844-63.92 21.844-35.313 0-63.927-9.775-63.927-21.844 0-12.064 28.614 3.86 63.927 3.86 35.305 0 63.92-15.924 63.92-3.86z" fill="#EAA918"/><path d="M99.972 64.145c-28.863 0-53.229-10.62-61.175-7.92 7.948 8.98 32.312 15.513 61.175 15.513 28.855 0 53.225-6.53 61.176-15.514-7.95-2.7-32.32 7.92-61.176 7.92z" fill="#C98909"/><path d="M69.349 148.936V127.34c0-2.02-1.64.887-3.661.887a3.66 3.66 0 0 0-3.661 3.661v17.05h7.322z" fill="#BF8208"/><path d="M65.686 128.226a3.66 3.66 0 0 0-3.661 3.661v10.988h7.324v-15.536c0-2.02-1.643.887-3.663.887z" fill="#EAA918"/><path d="M134.297 148.936V127.34c0-2.02 1.64.887 3.661.887a3.66 3.66 0 0 1 3.661 3.661v17.05h-7.322z" fill="#BF8208"/><path d="M137.96 128.226a3.66 3.66 0 0 1 3.662 3.661v10.988h-7.325v-15.536c0-2.02 1.643.887 3.663.887z" fill="#EAA918"/></g><path d="M72.688 158.048c.432 0 .648.216.648.648V164c0 .432-.216.648-.648.648h-17.16c-.432 0-.648-.216-.648-.648v-5.304c0-.432.216-.648.648-.648h4.776v-.912c0-.432.216-.648.648-.648h1.008c.432 0 .648.216.648.648v.912h3v-.912c0-.432.216-.648.648-.648h1.008c.432 0 .648.216.648.648v.912h4.776zM60.304 161v-1.848h-3.072V161h3.072zm5.304 0v-1.848h-3V161h3zm5.376 0v-1.848h-3.072V161h3.072zm-10.68 2.712v-1.896h-3.072v1.896h3.072zm5.304 0v-1.896h-3v1.896h3zm5.376 0v-1.896h-3.072v1.896h3.072zm2.256 2.136c.432 0 .648.192.648.528s-.216.528-.648.528H56.968v2.808c0 .528 0 .816-.048 1.104h16.56c.432 0 .648.216.648.648 0 .288-.216.456-.648.456h-7.872c.792 1.128 1.632 1.896 2.52 2.472.84-.432 1.752-1.08 2.76-1.872.336-.264.672-.24.936.072l.24.264c.288.312.264.648-.12.888-.696.48-1.464.912-2.424 1.44a17.527 17.527 0 0 0 4.152 1.368c.432.072.6.36.456.792-.12.384-.384.552-.792.48-4.488-.768-8.52-3.24-10.008-5.904h-2.112V176c1.656-.192 3.12-.384 4.152-.576.432-.072.696.12.72.576.024.384-.168.6-.576.672-2.784.432-5.928.816-8.544 1.008-.408.024-.648-.192-.672-.6-.024-.408.192-.672.6-.696l1.896-.144v-4.32h-1.968c-.312 2.136-.912 3.888-1.92 5.448-.264.384-.624.408-.936.048l-.576-.624c-.264-.264-.264-.552-.096-.888.816-1.704 1.32-3.984 1.32-6.624v-2.784c0-.432.216-.648.648-.648H73.24zm-1.344 2.472c.432 0 .648.168.648.504 0 .336-.216.504-.648.504H58.432c-.432 0-.648-.216-.648-.648 0-.24.216-.36.648-.36h13.464zm11.952-5.4c.432 0 .648.216.648.648 0 .36-.216.552-.648.552h-1.992v8.952c.24-.096.504-.216.96-.432.456-.192.768-.024.84.432.048.36-.096.6-.456.768-1.872.816-3.552 1.44-5.376 1.968-.432.12-.72-.048-.792-.48v-.048c-.072-.384.096-.624.504-.744.528-.144 1.176-.36 1.944-.6v-9.816h-1.848c-.432 0-.648-.216-.648-.648 0-.36.216-.552.648-.552h1.848v-5.016c0-.432.216-.648.648-.648h1.08c.432 0 .648.216.648.648v5.016h1.992zm13.8 1.248c0 .432-.216.648-.648.648H85.6c-.432 0-.648-.216-.648-.648v-6.12c0-.432.216-.648.648-.648H97c.432 0 .648.216.648.648v6.12zm-2.424-3.552v-2.064h-7.92v2.064h7.92zm0 3.192v-2.136h-7.92v2.136h7.92zm2.976 2.496c.432 0 .648.192.648.576 0 .384-.216.576-.648.576h-8.856c-.288.336-.744.888-1.488 1.632H97.6c.432 0 .648.216.648.648v.336c0 1.992-.096 3.528-.288 4.704-.36 2.064-1.128 2.856-2.64 2.856-.672 0-1.536-.024-2.544-.096-.408-.024-.648-.264-.648-.648-.024-.384.216-.6.672-.576.816.072 1.464.096 1.992.096.192 0 .456-.36.72-1.392.216-.792.36-2.376.36-4.584v-.24h-.528c-1.152 2.616-3.768 5.832-6.528 7.728-.336.24-.648.192-.912-.12l-.168-.192c-.264-.312-.216-.624.12-.888 1.944-1.488 4.128-4.056 5.352-6.528H91.12c-1.464 2.184-4.32 4.848-7.152 6.432-.36.192-.648.144-.888-.168l-.096-.096c-.264-.36-.216-.672.168-.912 1.896-1.176 4.152-3.168 5.736-5.256h-2.28c-.552.456-1.344.96-2.856 1.656-.384.192-.696.096-.888-.288l-.048-.096c-.192-.36-.072-.672.288-.864 1.392-.696 2.616-1.632 4.032-3.144H84.28c-.432 0-.648-.216-.648-.648 0-.336.216-.504.648-.504H98.2zm23.688-7.704h-2.424v-1.416c0-.432-.216-.648-.648-.648h-.888c-.432 0-.648.216-.648.648v1.416h-4.488v-1.416c0-.432-.216-.648-.648-.648h-.936c-.432 0-.648.216-.648.648v1.416h-2.88c-.432 0-.648.192-.648.552 0 .432.216.648.648.648h2.88v1.224c0 .432.216.648.648.648h.936c.432 0 .648-.216.648-.648V159.8h4.488v1.224c0 .432.216.648.648.648h.888c.432 0 .648-.216.648-.648V159.8h2.424c.432 0 .648-.192.648-.552 0-.432-.216-.648-.648-.648zm-15.792-1.632c.408.072.576.336.504.744a27.394 27.394 0 0 1-1.752 5.688v13.896c0 .432-.216.648-.648.648h-.744c-.432 0-.648-.216-.648-.648v-10.272a23.957 23.957 0 0 1-.984 1.56c-.288.432-.672.384-.864-.12l-.216-.552a.864.864 0 0 1 .096-.864c1.488-2.4 2.784-5.736 3.648-9.72.096-.432.36-.6.768-.528l.84.168zm16.032 5.592c.432 0 .648.192.648.576 0 .384-.216.576-.648.576h-13.416v3.696c0 3.696-.6 6.84-1.896 9.72-.216.456-.624.48-.912.096l-.528-.696c-.216-.288-.24-.552-.12-.888.96-2.568 1.344-5.232 1.344-9.36v-3.072c0-.432.216-.648.648-.648h14.88zm.168 12.84c0 2.04-.144 2.304-2.232 2.304a45.97 45.97 0 0 1-1.656-.048c-.408-.024-.6-.24-.624-.648-.024-.384.216-.6.672-.576.624.024 1.08.048 1.32.048.072 0 .144.024.168.048v-.096l.096-.168s.024-.456.024-.96v-1.728h-3.288v3.36c0 .432-.216.648-.648.648h-.84c-.432 0-.648-.216-.648-.648v-3.36h-3.216v3.576c0 .432-.216.648-.648.648h-.888c-.432 0-.648-.216-.648-.648v-11.016c0-.432.216-.648.648-.648h11.76c.432 0 .648.216.648.648v9.264zm-7.656-6.36v-2.448h-3.216v2.448h3.216zm5.424 0v-2.448h-3.288v2.448h3.288zm-5.424 3.528v-2.52h-3.216v2.52h3.216zm5.424 0v-2.52h-3.288v2.52h3.288zm25.728-13.488h-8.568v-1.824c0-.432-.216-.648-.648-.648h-1.152c-.432 0-.648.216-.648.648v1.824h-8.544c-.432 0-.648.216-.648.624 0 .432.216.648.648.648h2.208v3.168c0 1.224-.024 1.608.192 2.28.096.312.288.576 1.08.888.552.216 1.128.24 2.328.312 1.656.072 3.12.12 4.392.12 2.64 0 5.424-.096 8.28-.312.432-.024.648-.264.624-.648-.024-.408-.288-.624-.696-.6-2.952.216-5.64.288-8.208.288-1.152 0-2.496-.048-4.008-.12-1.608-.096-1.512-.192-1.512-2.208v-3.168h14.88c.432 0 .648-.216.648-.624 0-.432-.216-.648-.648-.648zm-10.344 9.264c.336-.24.624-.24.912.048 1.152 1.2 2.16 2.328 2.952 3.408.264.336.192.624-.12.888l-.504.408c-.336.264-.672.216-.912-.144a37.877 37.877 0 0 0-2.784-3.408c-.288-.312-.288-.648.072-.912l.384-.288zm-2.352 7.488c.072.384 1.776.408 3.216.408.984 0 1.752-.072 2.424-.096 1.128-.048 1.464-.576 1.632-1.32.096-.36.168-1.104.216-1.632.024-.432.288-.648.72-.576l.984.144c.408.048.6.288.576.696-.072.696-.144 1.776-.312 2.328-.216.792-.6 1.536-3.168 1.608-.912.024-1.92.12-2.976.12-1.752 0-4.824-.096-5.304-.672-.36-.456-.456-1.152-.456-2.472v-4.824c0-.432.216-.648.648-.648h1.152c.432 0 .648.216.648.648v6.288zm9.96-6.672c.36-.192.672-.12.864.24a45.01 45.01 0 0 1 2.832 5.856c.144.384.024.648-.36.84l-.792.384c-.408.192-.696.048-.864-.36a44.977 44.977 0 0 0-2.616-5.712c-.216-.384-.12-.696.264-.888l.672-.36zm-13.584.672l-.888-.312c-.408-.144-.696.024-.816.432-.6 1.992-1.368 3.744-2.28 5.208-.24.36-.168.648.168.888l.6.432c.336.24.672.216.912-.144 1.224-1.8 2.136-3.672 2.736-5.688.12-.384-.048-.672-.432-.816z" fill="#FFF"/></g></svg>