<svg height="64" width="64" xmlns="http://www.w3.org/2000/svg"><path d="M50.1 43.3C54.6 39.1 57 33 57 26v-.5c0-1.8-.2-3.5-.5-5.2v-.1C54.2 9.6 45.3 2 33.8 2h-3.6C16.3 2 5 12.5 5 25.5v.5c0 7.7 4.8 14.5 9 19v7.3c0 5.8 6.1 9.7 11.8 9.7h12.5c5.7 0 9.8-4 9.8-9.7v-6.7c.9-.2 5.3-.8 7.6 1.4 1.3 1.3 1.7 3.4 1.2 6.3-.1.5.3 1.1.8 1.2h.2c.5 0 .9-.3 1-.8.7-3.6.1-6.3-1.8-8.1-2-2-4.9-2.3-7-2.3zM16 52v-4.9h.2L46 45.8V52H16zm-5.2-38.3l43.8 7.6c.2 1.3.4 2.7.4 4.1v.6c0 .8 0 1.5-.1 2.3l-47-8.6c.6-2.1 1.6-4.1 2.9-6zm43 20l-9.5-.2c1.3-1.1 2.2-2.8 2.3-4.7l7.9 1.4h.1c-.1 1.3-.4 2.4-.8 3.5zm-17.1-6.5V27l8 1.5v.1c0 2.3-1.9 4.4-4 4.4s-3.8-1.6-4-3.7v-2.1zM22 25c2.2 0 4 1.8 4 4s-1.8 4-4 4-4-1.8-4-4 1.8-4 4-4zm5.9 4c0-1.4-.5-2.8-1.4-3.8l8.3 1.5c-.1.1-.1.3-.2.6v2.2c.1 1.6.9 3 2 4l-10.5-.2c1.2-1.2 1.8-2.7 1.8-4.3zM53 35.7c-1.5 3.2-3.7 6-6.6 8.1l-24.7 1L44 35.5l9 .2zm1.2-16.4l-42-7.3c.6-.7 1.3-1.3 1.9-2h34.6c2.6 2.5 4.5 5.7 5.5 9.3zM33.8 4c4.8 0 9.1 1.5 12.6 4H16.7c3.8-2.5 8.4-4 13.4-4h3.7zM7 25.5c0-1.3.1-2.6.4-3.8L19 23.8c-1.8 1-3 3-3 5.2 0 1.6.6 3 1.6 4.1l-9.2-.2C7.5 30.7 7 28.4 7 26v-.5zm2.3 9.4l29.7.6L16 45v-.4c0-.3-.1-.5-.3-.7-2.2-2.4-4.7-5.5-6.4-9zM25.8 60c-4 0-8.4-2.4-9.5-6h.7c.1.2.3.4.6.4l23 5.3c-.7.2-1.5.3-2.3.3H25.8zm17.6-1.7L24.7 54h21.1c-.3 1.8-1.2 3.3-2.4 4.3z"/></svg>