<?xml version="1.0" ?><!DOCTYPE svg  PUBLIC '-//W3C//DTD SVG 1.1//EN'  'http://www.w3.org/Graphics/SVG/1.1/DTD/svg11.dtd'><svg enable-background="new 0 0 64 64" height="64px" id="Layer_1" version="1.1" viewBox="0 0 64 64" width="64px" xml:space="preserve" xmlns="http://www.w3.org/2000/svg" xmlns:xlink="http://www.w3.org/1999/xlink"><g><path d="M50.1,43.3C54.6,39.1,57,33,57,26v-0.5c0-1.8-0.2-3.5-0.5-5.2c0,0,0,0,0-0.1C54.2,9.6,45.3,2,33.8,2h-3.6   C16.3,2,5,12.5,5,25.5V26c0,7.7,4.8,14.5,9,19v7.3c0,5.8,6.1,9.7,11.8,9.7h12.5c5.7,0,9.8-4,9.8-9.7v-6.7c0.9-0.2,5.3-0.8,7.6,1.4   c1.3,1.3,1.7,3.4,1.2,6.3c-0.1,0.5,0.3,1.1,0.8,1.2c0.1,0,0.1,0,0.2,0c0.5,0,0.9-0.3,1-0.8c0.7-3.6,0.1-6.3-1.8-8.1   C55.1,43.6,52.2,43.3,50.1,43.3z M16,52v-4.9c0.1,0,0.1,0,0.2,0L46,45.8V52H16z M10.8,13.7l43.8,7.6c0.2,1.3,0.4,2.7,0.4,4.1V26   c0,0.8,0,1.5-0.1,2.3c0,0,0,0,0,0l-47-8.6C8.5,17.6,9.5,15.6,10.8,13.7z M53.8,33.7l-9.5-0.2c0,0,0,0,0,0c1.3-1.1,2.2-2.8,2.3-4.7   l7.9,1.4c0,0,0.1,0,0.1,0C54.5,31.5,54.2,32.6,53.8,33.7z M36.7,27.2c0-0.1,0-0.2,0-0.2l8,1.5c0,0,0,0.1,0,0.1c0,2.3-1.9,4.4-4,4.4   c-2.1,0-3.8-1.6-4-3.7c0-0.2,0-1.3,0-1.8c0,0,0-0.1,0-0.1L36.7,27.2L36.7,27.2z M22,25c2.2,0,4,1.8,4,4c0,2.2-1.8,4-4,4   c-2.2,0-4-1.8-4-4C18,26.8,19.8,25,22,25z M27.9,29c0-1.4-0.5-2.8-1.4-3.8l8.3,1.5c-0.1,0.1-0.1,0.3-0.2,0.6h0l0,0.1   c0,0,0,0.1,0,0.1c0,0,0,0,0,0.1v0c0,1.8,0,1.9,0,1.9c0.1,1.6,0.9,3,2,4l-10.5-0.2C27.3,32.1,27.9,30.6,27.9,29z M53,35.7   c-1.5,3.2-3.7,6-6.6,8.1c0,0,0,0,0,0l-24.7,1L44,35.5L53,35.7z M54.2,19.3l-42-7.3c0.6-0.7,1.3-1.3,1.9-2h34.6   C51.3,12.5,53.2,15.7,54.2,19.3z M33.8,4c4.8,0,9.1,1.5,12.6,4H16.7c3.8-2.5,8.4-4,13.4-4H33.8z M7,25.5c0-1.3,0.1-2.6,0.4-3.8   L19,23.8c-1.8,1-3,3-3,5.2c0,1.6,0.6,3,1.6,4.1l-9.2-0.2c0,0,0,0,0,0C7.5,30.7,7,28.4,7,26V25.5z M9.3,34.9L39,35.5L16,45v-0.4   c0-0.3-0.1-0.5-0.3-0.7C13.5,41.5,11,38.4,9.3,34.9z M25.8,60c-4,0-8.4-2.4-9.5-6H17c0.1,0.2,0.3,0.4,0.6,0.4l23,5.3   c-0.7,0.2-1.5,0.3-2.3,0.3H25.8z M43.4,58.3L24.7,54h21.1C45.5,55.8,44.6,57.3,43.4,58.3z"/></g></svg>